<svg xmlns="http://www.w3.org/2000/svg" viewBox="0 0 455.111 455.111">
    <circle style="fill:#E24C4B;" cx="227.556" cy="227.556" r="227.556"/>
    <path style="fill:#FFFFFF;" d="M331.378,331.378c-8.533,8.533-22.756,8.533-31.289,0l-72.533-72.533l-72.533,72.533 c-8.533,8.533-22.756,8.533-31.289,0c-8.533-8.533-8.533-22.756,0-31.289l72.533-72.533l-72.533-72.533 c-8.533-8.533-8.533-22.756,0-31.289c8.533-8.533,22.756-8.533,31.289,0l72.533,72.533l72.533-72.533 c8.533-8.533,22.756-8.533,31.289,0c8.533,8.533,8.533,22.756,0,31.289l-72.533,72.533l72.533,72.533 C339.911,308.622,339.911,322.844,331.378,331.378z"/>
</svg>