<svg width="256" height="256" viewBox="0 0 256 256" fill="none" xmlns="http://www.w3.org/2000/svg">
<circle cx="128" cy="128" r="128" fill="white"/>
<path d="M175.081 59C183.133 59 189.618 65.4904 190 73.1367V196L174.678 183.024L166.269 175.399L157.075 167.414L160.901 179.992H80.5364C72.506 179.992 66 173.926 66 165.856V73.1624C66 65.5161 72.5103 59.0257 80.5622 59.0257H175.038L175.081 59ZM140.052 91.4433H139.872L138.708 92.5821C150.586 96.0157 156.332 101.367 156.332 101.367C148.684 97.5527 141.77 95.6347 134.882 94.8555C129.917 94.0977 124.927 94.5001 120.723 94.8555H119.559C116.875 94.8555 111.151 96.0157 103.477 99.0682C100.814 100.228 99.2728 100.986 99.2728 100.986C99.2728 100.986 104.997 95.2536 117.657 92.2011L116.875 91.4433C116.875 91.4433 107.303 91.0623 96.971 98.6915C96.971 98.6915 86.6388 116.643 86.6388 138.76C86.6388 138.76 92.3632 148.684 108.068 149.06C108.068 149.06 110.369 146.029 112.676 143.353C103.863 140.678 100.419 135.326 100.419 135.326C100.419 135.326 101.201 135.707 102.343 136.465H102.678C102.859 136.465 102.949 136.555 103.035 136.645V136.688C103.125 136.777 103.215 136.842 103.37 136.842C105.272 137.621 107.149 138.379 108.695 139.136C111.379 140.275 114.801 141.431 119.005 142.193C124.33 142.972 130.433 143.332 137.39 142.193C140.812 141.414 144.256 140.678 147.7 139.136C149.916 137.998 152.665 136.863 155.684 134.924C155.684 134.924 152.261 140.275 143.067 142.951C144.948 145.605 147.606 148.658 147.606 148.658C163.328 148.303 169.434 138.379 169.769 138.803C169.769 116.707 159.368 98.7343 159.368 98.7343C150.019 91.7987 141.25 91.5332 139.709 91.5332L140.022 91.4219L140.052 91.4433ZM141.014 116.643C145.042 116.643 148.284 120.055 148.284 124.246C148.284 128.485 145.021 131.893 141.014 131.893C136.986 131.893 133.744 128.48 133.744 124.289C133.744 120.051 137.007 116.643 141.014 116.643ZM115.003 116.643C119.005 116.643 122.252 120.055 122.252 124.246C122.252 128.485 118.988 131.893 114.982 131.893C110.953 131.893 107.69 128.48 107.69 124.289C107.69 120.051 110.953 116.643 114.982 116.643H115.003Z" fill="#89A1DC"/>
</svg>
