<svg width="256" height="256" viewBox="0 0 256 256" fill="none" xmlns="http://www.w3.org/2000/svg">
<circle cx="128" cy="128" r="128" fill="white"/>
<path d="M198 71H58C55.3478 71 52.8043 71.9921 50.9289 73.7581C49.0536 75.524 48 77.9192 48 80.4167V174.583C48 177.081 49.0536 179.476 50.9289 181.242C52.8043 183.008 55.3478 184 58 184H198C200.652 184 203.196 183.008 205.071 181.242C206.946 179.476 208 177.081 208 174.583V80.4167C208 77.9192 206.946 75.524 205.071 73.7581C203.196 71.9921 200.652 71 198 71V71ZM190.3 174.583H66.3L101.3 140.495L94.1 133.95L58 169.122V87.5733L120.15 145.815C122.024 147.569 124.558 148.554 127.2 148.554C129.842 148.554 132.376 147.569 134.25 145.815L198 86.1138V168.51L161.2 133.856L154.15 140.495L190.3 174.583ZM64.55 80.4167H189.9L127.2 139.13L64.55 80.4167Z" fill="#D66161"/>
</svg>
