<svg width="256" height="256" viewBox="0 0 256 256" fill="none" xmlns="http://www.w3.org/2000/svg">
<circle cx="128" cy="128" r="128" fill="#141A26"/>
<path d="M59.0979 78.2941L124.535 54.12C126.771 53.2939 129.229 53.2939 131.465 54.12L196.902 78.2942C198.473 78.8744 199.516 80.3718 199.516 82.0463V174.409C199.516 176.084 198.473 177.581 196.902 178.161L130.079 202.848C128.737 203.343 127.263 203.343 125.921 202.848L59.0979 178.161C57.5271 177.581 56.484 176.084 56.484 174.409V82.0463C56.484 80.3717 57.5271 78.8744 59.0979 78.2941Z" fill="#9FEF00"/>
<path d="M121.167 112.513V187.217L69.694 168.085V93.3809L121.167 112.513Z" fill="#141A26"/>
<path d="M134.833 112.513V187.217L186.306 168.085V93.3809L134.833 112.513Z" fill="#141A26"/>
<path d="M81.9929 84.2704L128 67.4163L174.007 84.2704L128 101.124L81.9929 84.2704Z" fill="#141A26"/>
</svg>
