<svg width="256" height="256" viewBox="0 0 256 256" fill="none" xmlns="http://www.w3.org/2000/svg">
<path d="M101.185 80.3039L101.793 94.2913L92.0679 112.536L76.873 142.335L73.834 167.269L84.7743 202.542L109.694 216.529H147.377L182.629 189.771L198.432 147.808L161.964 103.414L151.632 78.4794L101.185 80.3039Z" fill="#F1F1F1"/>
<path d="M187.491 114.969C177.766 100.981 169.865 92.467 165.611 74.8307C161.356 57.1944 165.114 62.0128 163.179 46.8559C161.356 38.9499 158.876 33.2817 155.278 29.2195C151.68 25.1574 147.347 22.209 143.88 20.8214C141.713 19.9542 126.712 14.0158 110.909 22.5299C94.4984 31.044 96.3218 49.2885 99.3608 86.3856C99.3608 88.8182 98.753 91.8589 97.5374 94.2915C95.1062 99.7648 90.8516 104.63 87.2049 108.887C82.9503 114.969 78.6957 121.05 75.6567 127.74C68.3632 141.727 61.6774 159.363 63.5008 166.053C66.5398 165.445 104.831 223.827 104.831 225.044C107.262 224.435 117.595 224.435 126.712 224.435C139.475 223.827 146.769 223.219 157.101 225.652C157.101 223.827 156.494 222.003 156.494 220.178C156.494 216.53 157.101 213.489 157.709 209.232C158.317 206.191 158.925 203.15 159.533 199.501C153.455 204.975 142.514 211.056 132.182 212.881C123.065 214.705 107.87 211.664 100.576 202.542C101.184 202.542 102.4 202.542 103.008 201.934C104.831 201.326 106.654 200.718 107.262 199.501C109.086 196.461 107.87 193.42 106.654 191.595C105.439 189.771 96.3218 183.081 92.0672 179.432C87.8127 175.784 85.3815 173.959 82.9503 171.526L78.0879 166.661C76.8723 165.445 76.2645 164.229 75.6567 163.621C74.4412 160.58 73.8334 156.931 74.4412 152.066C75.049 145.376 77.4801 139.903 80.5191 133.821C81.7347 131.389 84.7737 126.523 84.7737 126.523C84.7737 126.523 74.4412 152.066 79.9113 159.972C79.9113 159.972 80.5191 152.066 82.9503 144.16C84.7737 138.686 87.8127 130.78 91.4594 126.523C95.1062 122.266 104.223 106.454 104.831 96.7241C104.831 92.467 105.439 88.21 105.439 85.1692C103.008 82.7366 145.553 76.6552 147.984 83.3448C148.592 85.7774 157.101 107.671 161.964 119.226C164.395 124.699 167.434 129.564 169.257 135.646C171.081 142.335 172.296 151.458 172.296 160.58C172.296 162.404 172.296 165.445 171.688 168.486C172.904 168.486 196.608 142.943 168.649 121.658C168.649 121.658 185.668 129.564 186.276 145.376C186.883 158.147 181.413 168.486 180.198 170.31C180.805 170.31 192.961 175.784 193.569 175.784C196 175.784 200.863 173.959 200.863 173.959C201.47 172.135 203.294 167.269 203.294 165.445C207.548 151.458 197.216 128.956 187.491 114.969Z" fill="#3E4256"/>
<path d="M110.298 74.8307C114.662 74.8307 118.199 69.3852 118.199 62.6677C118.199 55.9503 114.662 50.5048 110.298 50.5048C105.934 50.5048 102.396 55.9503 102.396 62.6677C102.396 69.3852 105.934 74.8307 110.298 74.8307Z" fill="#F1F1F1"/>
<path d="M137.657 76.0469C143.363 76.0469 147.989 69.7845 147.989 62.0595C147.989 54.3344 143.363 48.072 137.657 48.072C131.95 48.072 127.324 54.3344 127.324 62.0595C127.324 69.7845 131.95 76.0469 137.657 76.0469Z" fill="#F1F1F1"/>
<path d="M114.721 63.4985C114.216 59.4998 111.916 56.4973 109.585 56.7921C107.254 57.087 105.774 60.5675 106.279 64.5662C106.784 68.5648 109.083 71.5673 111.414 71.2725C113.746 70.9777 115.226 67.4971 114.721 63.4985Z" fill="#3E4256"/>
<path d="M137.037 72.3974C140.394 72.3974 143.115 68.8578 143.115 64.4915C143.115 60.1252 140.394 56.5856 137.037 56.5856C133.68 56.5856 130.959 60.1252 130.959 64.4915C130.959 68.8578 133.68 72.3974 137.037 72.3974Z" fill="#3E4256"/>
<path d="M217.872 198.285C215.441 197.068 211.187 195.244 207.54 189.771C205.717 186.73 206.324 178.216 203.285 174.567C201.462 172.134 199.031 173.351 198.423 173.351C192.953 174.567 180.189 183.081 171.68 173.351C170.464 172.134 168.641 170.31 165.602 170.31C162.563 170.31 161.347 171.526 160.132 173.959C158.916 176.391 158.916 178.216 158.916 184.297C158.916 189.162 158.916 194.636 158.309 198.893C157.093 209.231 155.27 215.313 155.27 221.394C155.27 228.084 157.093 232.341 159.524 234.166C161.347 235.99 164.386 237.206 171.072 237.206C177.758 237.206 182.013 234.774 186.267 230.517C189.306 227.476 191.737 226.26 200.246 220.178C206.932 215.921 217.265 210.448 219.088 208.623C220.304 207.407 222.127 206.799 222.127 203.15C222.127 200.109 219.696 198.893 217.872 198.285V198.285Z" fill="#F1C46A"/>
<path d="M95.697 200.109C89.619 190.379 89.0112 188.554 84.7567 182.473C81.1099 176.391 73.2085 164.836 68.3462 164.836C64.6994 164.836 62.876 166.661 60.4448 169.093C58.0136 171.526 55.5825 176.999 51.3279 180.04C47.6811 183.081 37.3486 182.473 34.9174 186.122C32.4862 189.77 37.3486 195.244 37.3486 204.366C37.3486 208.015 34.3096 210.448 33.7018 212.88C33.094 215.921 32.4862 217.745 33.7018 220.178C36.133 223.827 39.172 225.043 59.837 229.3C70.7774 231.733 81.1099 237.814 87.7956 238.422C94.4814 239.031 106.03 238.422 106.03 222.002C106.637 212.272 101.167 209.839 95.697 200.109Z" fill="#F1C46A"/>
<path d="M107.254 90.0342C103.607 87.6016 100.568 85.169 100.568 81.5201C100.568 77.8712 103 76.6549 106.646 73.6141C107.254 73.006 113.94 66.9245 120.626 66.9245C127.311 66.9245 135.213 71.1815 138.252 72.3978C143.722 73.6141 149.192 74.8304 148.584 79.0875C147.976 85.169 147.369 86.3853 141.291 89.426C137.036 90.6423 129.135 97.332 123.665 97.332C121.233 97.332 117.587 97.332 115.155 96.7238C113.332 96.1157 110.293 93.0749 107.254 90.0342Z" fill="#F1C46A"/>
<path d="M106.047 85.169C107.263 86.3853 109.086 87.6016 110.91 88.2097C112.125 88.8179 113.949 89.426 113.949 89.426H119.419C122.458 89.426 126.712 88.2097 130.967 85.7771C135.222 83.9527 135.829 82.7364 138.868 81.5201C141.907 79.6956 144.946 77.8712 143.731 77.263C142.515 76.6549 141.3 77.2631 137.045 79.6956C133.398 82.1282 130.359 83.3445 126.712 85.169C124.889 85.7771 122.458 86.9934 120.635 86.9934H115.164C113.341 86.9934 112.125 86.3853 110.302 85.7771C109.086 85.169 108.479 84.5608 107.871 84.5608C106.655 83.9527 104.224 81.5201 103.008 80.9119C103.008 80.9119 101.793 80.9119 102.401 81.5201L106.047 85.169Z" fill="#634703"/>
<path d="M124.287 71.7894C124.895 73.0057 126.11 73.0057 126.718 73.6138C127.326 74.222 127.934 74.222 127.934 74.222C128.542 73.6138 127.934 72.3975 127.326 72.3975C127.326 71.1812 124.287 71.1812 124.287 71.7894V71.7894Z" fill="#634703"/>
<path d="M114.553 73.0057C114.553 73.6139 115.768 74.222 115.768 73.6139C116.376 73.0057 116.984 72.3976 117.592 72.3976C118.807 71.7894 118.2 71.1813 116.376 71.1813C115.161 71.7894 115.161 72.3976 114.553 73.0057V73.0057Z" fill="#634703"/>
<path d="M173.513 180.648V182.473C174.729 184.905 177.768 185.513 180.199 185.513C183.846 185.513 187.493 183.081 189.316 180.648C189.316 180.04 189.924 179.432 190.531 178.824C191.747 176.999 192.355 175.783 192.963 175.175C192.963 175.175 192.355 174.567 192.355 173.959C191.747 172.742 189.924 171.526 187.493 170.918C185.669 170.31 182.63 169.702 181.415 169.702C175.944 169.093 172.905 170.918 171.082 172.742C171.082 172.742 171.69 172.742 171.69 173.351C172.905 174.567 173.513 175.783 173.513 177.608C174.121 178.824 173.513 179.432 173.513 180.648V180.648Z" fill="#3E4256"/>
</svg>
