<svg width="216" height="216" viewBox="0 0 216 216" fill="none" xmlns="http://www.w3.org/2000/svg">
<path d="M108 203.343C105.38 203.343 102.934 202.645 100.663 201.425L77.4292 187.646C73.9356 185.728 75.6824 185.03 76.7305 184.681C81.4469 183.112 82.3203 182.763 87.2115 179.972C87.7362 179.623 88.4349 179.798 88.9583 180.146L106.777 190.786C107.476 191.134 108.349 191.134 108.873 190.786L178.575 150.497C179.274 150.149 179.623 149.451 179.623 148.579V68.1761C179.623 67.3041 179.274 66.6065 178.575 66.2577L108.873 26.1434C108.175 25.7946 107.301 25.7946 106.777 26.1434L37.0756 66.2584C36.3768 66.6072 36.0275 67.4792 36.0275 68.1768V148.579C36.0275 149.277 36.3768 150.149 37.0756 150.497L56.1173 161.485C66.4242 166.717 72.8868 160.613 72.8868 154.509V75.1522C72.8868 74.1058 73.7609 73.0594 74.9837 73.0594H83.8931C84.9412 73.0594 85.9893 73.9314 85.9893 75.1522V154.508C85.9893 168.286 78.4773 176.309 65.3755 176.309C61.3578 176.309 58.2135 176.309 49.3047 171.949L30.9617 161.485C26.4199 158.868 23.625 153.985 23.625 148.753V68.3512C23.625 63.1191 26.4199 58.2359 30.9617 55.6192L100.663 15.3312C105.03 12.8896 110.97 12.8896 115.337 15.3312L185.038 55.6192C189.58 58.2353 192.375 63.1185 192.375 68.3512V148.753C192.375 153.986 189.58 158.869 185.038 161.485L115.337 201.774C113.066 202.821 110.446 203.344 108 203.344V203.343ZM129.487 148.055C98.9158 148.055 92.6273 134.103 92.6273 122.243C92.6273 121.197 93.5007 120.15 94.7235 120.15H103.807C104.855 120.15 105.729 120.848 105.729 121.894C107.127 131.138 111.144 135.673 129.661 135.673C144.335 135.673 150.625 132.359 150.625 124.511C150.625 119.976 148.878 116.662 125.993 114.394C106.952 112.476 95.0728 108.29 95.0728 93.1175C95.0728 78.9897 106.951 70.6184 126.866 70.6184C149.226 70.6184 160.232 78.2921 161.63 95.0352C161.63 95.5584 161.455 96.0817 161.105 96.6049C160.756 96.9537 160.232 97.3025 159.708 97.3025H150.625C149.75 97.3025 148.878 96.6049 148.702 95.7329C146.606 86.1408 141.191 83.0016 126.866 83.0016C110.796 83.0016 108.873 88.5824 108.873 92.768C108.873 97.8263 111.144 99.3953 132.806 102.186C154.293 104.976 164.424 108.988 164.424 123.987C164.25 139.335 151.673 148.055 129.487 148.055Z" fill="#87D18F"/>
</svg>
