<svg width="256" height="256" viewBox="0 0 256 256" fill="none" xmlns="http://www.w3.org/2000/svg">
<circle cx="128" cy="128" r="128" fill="white"/>
<path d="M127.5 187C171.407 187 207 151.834 207 108.455C207 66.5974 173.859 32.3869 132.087 30.0394L129.984 38.871H124.633L123.678 30C81.5462 31.9703 48 66.3424 48 108.455C48 151.834 83.5934 187 127.5 187Z" fill="black"/>
<ellipse cx="127.5" cy="109" rx="74.5" ry="74" fill="white"/>
<path d="M61 186.307V147.895L196 145V186.307L169 205.609V228H87.8085V205.609L61 186.307Z" fill="white"/>
<path d="M151.816 154.862C136.33 163.477 130.785 170.54 82.9878 152.759C85.5311 154.47 88.0138 156.076 90.4442 157.57V169.775C98.4742 184.879 115.108 184.114 122.182 170.743C124.937 171.172 127.671 171.372 130.403 171.331L144.36 185.453C149.814 188.423 152.573 188.123 157.17 185.453L180.304 171.331V144.985C187.195 138.373 194.532 130.421 202.482 121.022V100.564C197.511 122.933 175.142 141.886 151.816 154.862Z" fill="black"/>
<path d="M96.1799 168.628V162.319C103.286 166.358 107.54 168.07 116.064 169.202C108.625 176.893 104.296 177.331 96.1799 168.628Z" fill="white"/>
<path d="M127.367 189L120 198.049V201H123.967C127.434 196.74 129.59 196.876 133.789 201H137V198.049L130.2 189H127.367Z" fill="black"/>
<path d="M58 187.879V153.381H63.1569V184.448L89.8963 203.889V224.092H103.648V214.371L104.794 212.847H107.85L109.187 214.371V224.092H124.467V211.703L126.377 209.797H129.05L130.96 211.703V224.092H145.858V214.371L147.577 212.847H150.824L152.543 215.134V224.092H165.913V203.126L192.461 184.639V153H198V187.688L171.261 206.366V228.285L169.16 230H85.5034L84.1664 228.666V206.366L58 187.879Z" fill="black"/>
<circle cx="82.6054" cy="71.6945" r="6.30928" fill="black"/>
<circle cx="118.932" cy="56.3994" r="6.30928" fill="black"/>
<path d="M100.187 60.7063L113.387 56.0168L114.343 58.6935L101.725 63.0909V71.6064C101.725 72.7109 100.829 73.6064 99.7245 73.6064H86.4293V69.7825H98.8567V62.5909C98.8567 61.7445 99.3895 60.9897 100.187 60.7063Z" fill="black"/>
<rect x="52.5885" y="92.1519" width="42.4442" height="3.44143" fill="black"/>
<circle cx="96.7535" cy="93.8725" r="6.30928" fill="black"/>
<path d="M135.565 71.0327V40.1479H139.007V66.2623C139.007 67.7249 140.525 68.6928 141.851 68.0753L152.963 62.8996H156.596V80.6803C164.238 70.8485 166.935 63.4968 168.832 47.0308L169.788 44.5453L173.994 47.4132C173.994 72.2679 160.949 90.3362 134.609 110.697C110.445 127.295 94.5408 135.471 66.9278 145.685L63.6776 140.332C79.5258 134.607 89.9179 130.06 103.673 122.706C105.233 121.872 105.002 119.577 103.311 119.059L84.8285 113.395C84.3804 113.258 83.8984 113.282 83.4664 113.464L73.2371 117.771L71.8988 115.286L81.8118 110.513C82.0825 110.382 82.3791 110.315 82.6795 110.315H85.5587C85.7556 110.315 85.9514 110.344 86.1399 110.401L110.75 117.875C111.329 118.051 111.957 117.955 112.458 117.614L127.118 107.619C127.914 107.076 128.21 106.043 127.822 105.161L117.976 82.7834L121.035 81.2539L130.88 102.326C131.421 103.483 132.896 103.843 133.903 103.057C141.262 97.3196 145.703 93.1618 152.452 85.6485C152.781 85.2827 152.963 84.8059 152.963 84.3142V66.341L139.417 72.8361C139.147 72.9655 138.851 73.0327 138.552 73.0327H137.565C136.461 73.0327 135.565 72.1372 135.565 71.0327Z" fill="black"/>
<circle cx="118.932" cy="78.5773" r="6.30928" fill="black"/>
<ellipse cx="154.875" cy="65.0029" rx="6.30928" ry="6.11809" fill="black"/>
<circle cx="70.3693" cy="117.198" r="6.30928" fill="black"/>
<circle cx="60.045" cy="147.024" r="8.22118" fill="black"/>
<circle cx="60.0451" cy="147.023" r="5.16214" fill="white"/>
<circle cx="195.408" cy="147.023" r="8.22118" fill="black"/>
<circle cx="195.408" cy="147.023" r="5.16214" fill="white"/>
<circle cx="137.221" cy="34.2212" r="8.22118" fill="black"/>
<circle cx="137.221" cy="34.2212" r="5.16214" fill="white"/>
<circle cx="118.221" cy="34.2212" r="8.22118" fill="black"/>
<circle cx="118.221" cy="34.2212" r="5.16214" fill="white"/>
</svg>
