<svg width="216" height="216" viewBox="0 0 216 216" fill="none" xmlns="http://www.w3.org/2000/svg">
<path d="M167.281 53.9462C163.001 37.1657 135.171 31.6712 108.832 40.9997C92.3374 46.5424 77.0976 55.284 63.9853 66.7239C49.4795 80.2914 47.1643 92.1039 48.116 97.0382C51.491 114.453 75.3388 125.834 85.1465 134.278V134.325C82.2575 135.749 61.0895 146.475 56.1215 157.41C50.897 168.966 56.9518 177.255 60.968 178.369C66.9979 179.821 73.331 179.348 79.0788 177.018C84.8266 174.687 89.7006 170.616 93.017 165.375C95.7579 161.129 97.4727 156.303 98.0257 151.279C98.5787 146.255 97.9547 141.172 96.203 136.431C100.927 135.231 105.838 134.949 110.668 135.601C127.246 137.538 130.5 147.886 129.879 152.219C129.587 153.762 128.966 155.224 128.059 156.505C127.151 157.786 125.979 158.857 124.621 159.644C123.46 160.367 123.102 160.61 123.203 161.15C123.345 161.926 123.878 161.899 124.87 161.73C127.362 160.946 129.557 159.425 131.166 157.368C132.776 155.311 133.725 152.815 133.888 150.208C134.287 140.083 124.56 128.702 107.334 128.993C102.331 128.85 97.3383 129.534 92.558 131.018C92.3188 130.744 92.0758 130.474 91.829 130.208C81.1775 118.847 61.4945 110.808 62.3248 95.5329C62.6285 89.9777 64.559 75.3572 100.125 57.6182C129.285 43.0854 152.626 47.0881 156.663 55.9509C162.427 68.6139 144.189 92.1377 113.908 95.5329C110.561 96.2123 107.105 96.1295 103.794 95.2905C100.484 94.4515 97.4047 92.8779 94.7855 90.6864C93.1925 88.9314 92.9563 88.8572 92.3623 89.1812C91.397 89.7144 92.0113 91.2669 92.3623 92.1849C93.5217 94.2745 95.0868 96.1116 96.9658 97.5883C98.8447 99.065 101 100.152 103.304 100.784C115.21 103.371 127.627 102.143 138.796 97.2744C157.162 90.1937 171.486 70.4499 167.281 53.9462ZM89.2235 139.475C90.5642 144.097 90.496 149.014 89.0278 153.596C88.8703 154.073 88.697 154.546 88.508 155.014C88.319 155.482 88.1143 155.932 87.8938 156.364C86.7578 158.688 85.2863 160.833 83.5265 162.729C78.0388 168.716 70.364 170.984 67.0768 169.074C63.5263 167.015 65.3015 158.571 71.6668 151.841C76.5577 147.005 82.1966 142.989 88.3663 139.948L89.2235 139.475Z" fill="#CB91C0"/>
</svg>
