<svg width="256" height="256" viewBox="0 0 256 256" fill="none" xmlns="http://www.w3.org/2000/svg">
<circle cx="128" cy="128" r="128" fill="white"/>
<path d="M189.214 148.003C187.986 147.969 186.769 148.253 185.685 148.825C184.727 149.36 183.912 150.112 183.307 151.021C182.697 151.941 182.247 153.005 181.973 154.235C181.694 155.51 181.556 156.81 181.561 158.114C181.561 159.472 181.699 160.777 181.973 162.007C182.247 163.245 182.689 164.332 183.307 165.267C183.908 166.189 184.723 166.955 185.685 167.501C186.767 168.079 187.985 168.365 189.214 168.331C190.586 168.331 191.752 168.052 192.72 167.501C193.674 166.955 194.48 166.189 195.068 165.267C195.702 164.267 196.151 163.163 196.394 162.007C196.669 160.777 196.806 159.48 196.806 158.114C196.806 156.756 196.669 155.458 196.394 154.235C196.153 153.093 195.703 152.004 195.068 151.021C194.473 150.112 193.665 149.358 192.713 148.825C191.636 148.255 190.427 147.974 189.206 148.01L189.214 148.003ZM140.417 148.531L134.006 153.187L136.4 156.431L140.028 153.647V167.818H144.632V148.523L140.417 148.531ZM156.614 148.531L150.204 153.187L152.597 156.431L156.233 153.647V167.818H160.829V148.523L156.614 148.531ZM172.742 148.531L166.34 153.187L168.726 156.431L172.361 153.647V167.818H176.958V148.523L172.742 148.531ZM189.206 151.874C189.816 151.874 190.304 152.085 190.685 152.515C191.078 152.981 191.374 153.519 191.554 154.1C191.752 154.726 191.889 155.397 191.958 156.129C192.095 157.464 192.095 158.809 191.958 160.144C191.898 160.835 191.762 161.518 191.554 162.181C191.378 162.763 191.082 163.302 190.685 163.766C190.504 163.975 190.278 164.141 190.023 164.252C189.769 164.363 189.492 164.416 189.214 164.407C188.933 164.416 188.653 164.363 188.394 164.252C188.136 164.141 187.906 163.975 187.72 163.766C187.316 163.304 187.012 162.764 186.828 162.181C186.61 161.52 186.467 160.836 186.401 160.144C186.263 158.809 186.263 157.464 186.401 156.129C186.478 155.397 186.615 154.726 186.828 154.092C187.013 153.511 187.317 152.975 187.72 152.515C187.905 152.305 188.136 152.139 188.394 152.028C188.652 151.917 188.933 151.864 189.214 151.874H189.206ZM200.373 175.061C199.482 175.035 198.6 175.238 197.812 175.65C197.119 176.038 196.528 176.584 196.089 177.242C195.623 177.956 195.295 178.749 195.121 179.581C194.915 180.472 194.816 181.407 194.816 182.396C194.816 183.384 194.915 184.328 195.121 185.226C195.296 186.065 195.624 186.865 196.089 187.587C196.531 188.266 197.111 188.81 197.812 189.21C198.521 189.61 199.374 189.813 200.373 189.813C201.364 189.813 202.225 189.61 202.919 189.21C203.612 188.813 204.198 188.257 204.626 187.587C205.068 186.908 205.388 186.123 205.587 185.226C205.791 184.296 205.893 183.347 205.891 182.396C205.891 181.415 205.785 180.472 205.587 179.581C205.41 178.751 205.085 177.959 204.626 177.242C204.191 176.588 203.606 176.045 202.919 175.658C202.138 175.24 201.26 175.032 200.373 175.054V175.061ZM211.943 175.439L207.286 178.819L209.024 181.166L211.661 179.159V189.436H215V175.431L211.943 175.439ZM200.373 177.868C200.815 177.868 201.166 178.019 201.44 178.336C201.725 178.67 201.938 179.057 202.065 179.476C202.221 179.956 202.323 180.452 202.37 180.955C202.467 181.923 202.467 182.899 202.37 183.867C202.322 184.372 202.22 184.87 202.065 185.354C201.939 185.775 201.726 186.165 201.44 186.501C201.308 186.651 201.144 186.771 200.959 186.851C200.775 186.93 200.574 186.968 200.373 186.961C200.17 186.97 199.968 186.933 199.78 186.855C199.593 186.777 199.426 186.658 199.291 186.508C198.998 186.171 198.778 185.778 198.643 185.354C198.488 184.87 198.386 184.372 198.338 183.867C198.285 183.379 198.257 182.887 198.254 182.396C198.254 181.966 198.284 181.483 198.33 180.955C198.38 180.453 198.482 179.957 198.635 179.476C198.78 179.059 199.002 178.672 199.291 178.336C199.425 178.184 199.591 178.063 199.779 177.982C199.966 177.901 200.169 177.862 200.373 177.868ZM136.849 195.767C136.234 195.751 135.624 195.894 135.081 196.182C134.599 196.45 134.189 196.827 133.884 197.284C133.558 197.778 133.328 198.328 133.206 198.906C133.064 199.548 132.995 200.203 133 200.86C133 201.539 133.069 202.196 133.206 202.822C133.331 203.402 133.56 203.954 133.884 204.452C134.189 204.927 134.593 205.297 135.081 205.576C135.623 205.869 136.233 206.015 136.849 205.999C137.535 205.999 138.13 205.848 138.61 205.576C139.093 205.302 139.501 204.917 139.799 204.452C140.116 203.949 140.34 203.395 140.462 202.815C140.746 201.527 140.746 200.194 140.462 198.906C140.342 198.33 140.117 197.78 139.799 197.284C139.498 196.827 139.091 196.449 138.61 196.182C138.073 195.894 137.468 195.751 136.857 195.767H136.849ZM144.868 196.031L141.644 198.37L142.848 200.008L144.677 198.612V205.735H146.987V196.031H144.868ZM136.849 197.721C137.154 197.721 137.406 197.827 137.589 198.038C137.789 198.269 137.937 198.539 138.023 198.83C138.129 199.165 138.201 199.508 138.237 199.857C138.267 200.226 138.29 200.551 138.29 200.86C138.29 201.162 138.267 201.509 138.237 201.879C138.201 202.227 138.129 202.571 138.023 202.905C137.937 203.197 137.789 203.467 137.589 203.697C137.498 203.803 137.384 203.886 137.256 203.943C137.128 203.999 136.989 204.026 136.849 204.022C136.708 204.026 136.568 203.999 136.439 203.943C136.31 203.887 136.195 203.803 136.103 203.697C135.9 203.466 135.747 203.197 135.653 202.905C135.543 202.572 135.471 202.228 135.439 201.879C135.374 201.206 135.374 200.529 135.439 199.857C135.471 199.508 135.543 199.163 135.653 198.83C135.749 198.538 135.904 198.268 136.11 198.038C136.203 197.935 136.317 197.853 136.444 197.798C136.572 197.744 136.71 197.717 136.849 197.721Z" fill="black"/>
<path d="M185.059 192.608C185.86 192.186 186.757 191.977 187.663 192.002C188.564 191.977 189.456 192.186 190.25 192.608C190.951 193.002 191.547 193.556 191.986 194.225C192.451 194.953 192.78 195.758 192.954 196.602C193.377 198.488 193.379 200.442 192.962 202.329C192.761 203.241 192.435 204.046 191.986 204.736C191.551 205.417 190.955 205.982 190.25 206.384C189.458 206.811 188.565 207.023 187.663 206.998C186.648 206.998 185.78 206.791 185.059 206.384C184.339 205.978 183.758 205.426 183.301 204.736C182.828 203.999 182.495 203.184 182.317 202.329C181.894 200.44 181.894 198.483 182.317 196.594C182.493 195.749 182.827 194.943 183.301 194.218C183.75 193.551 184.353 192.999 185.059 192.608Z" fill="#C11111"/>
<path d="M208.791 192.608C209.591 192.186 210.488 191.978 211.394 192.002C212.295 191.977 213.187 192.186 213.982 192.608C214.68 193.003 215.272 193.557 215.71 194.225C216.178 194.952 216.509 195.758 216.686 196.602C217.105 198.488 217.105 200.442 216.686 202.329C216.484 203.241 216.159 204.046 215.71 204.736C215.277 205.416 214.684 205.981 213.982 206.384C213.19 206.813 212.296 207.025 211.394 206.998C210.371 206.998 209.504 206.791 208.791 206.384C208.08 205.982 207.476 205.417 207.032 204.736C206.559 204 206.225 203.184 206.048 202.329C205.628 200.44 205.628 198.483 206.048 196.594C206.224 195.748 206.558 194.942 207.032 194.218C207.482 193.552 208.085 193 208.791 192.608Z" fill="#C11111"/>
<path d="M194.69 195.82L199.424 192.385H202.531V206.614H199.137V196.165L196.456 198.212L194.69 195.82Z" fill="#C11111"/>
<path d="M188.803 195.457C188.476 195.15 188.048 195.001 187.529 195.001C187.286 194.994 187.045 195.031 186.821 195.11C186.598 195.189 186.398 195.307 186.237 195.457C185.901 195.771 185.646 196.144 185.464 196.593C185.276 197.066 185.151 197.555 185.091 198.05C185.027 198.573 185 199.051 185 199.485C185.004 199.972 185.037 200.458 185.1 200.942C185.155 201.442 185.277 201.936 185.464 202.414C185.624 202.833 185.888 203.219 186.237 203.55C186.399 203.699 186.599 203.816 186.822 203.894C187.045 203.971 187.287 204.007 187.529 203.999C187.769 204.007 188.008 203.97 188.228 203.893C188.448 203.815 188.645 203.698 188.803 203.55C189.145 203.218 189.399 202.831 189.549 202.414C189.734 201.936 189.856 201.442 189.913 200.942C190.029 199.98 190.029 199.012 189.913 198.05C189.857 197.555 189.735 197.066 189.549 196.593C189.399 196.176 189.145 195.789 188.803 195.457Z" fill="white"/>
<path d="M212.798 195.457C212.47 195.15 212.042 195.001 211.522 195.001C211.278 194.994 211.036 195.032 210.813 195.11C210.589 195.189 210.389 195.307 210.227 195.457C209.89 195.77 209.635 196.144 209.452 196.593C209.267 197.066 209.144 197.555 209.088 198.05C208.971 199.012 208.971 199.98 209.088 200.942C209.142 201.442 209.265 201.936 209.452 202.414C209.612 202.833 209.876 203.22 210.227 203.55C210.388 203.698 210.587 203.815 210.809 203.892C211.031 203.97 211.271 204.006 211.513 203.999C211.753 204.008 211.993 203.972 212.214 203.894C212.435 203.817 212.631 203.699 212.789 203.55C213.134 203.219 213.392 202.832 213.546 202.414C213.732 201.936 213.854 201.442 213.91 200.942C214.03 199.98 214.03 199.011 213.91 198.05C213.852 197.555 213.73 197.066 213.546 196.593C213.395 196.176 213.141 195.789 212.798 195.457Z" fill="white"/>
<path d="M164.087 209.401C164.631 209.121 165.241 208.983 165.856 209.002C166.472 208.982 167.083 209.119 167.626 209.401C168.104 209.662 168.51 210.032 168.808 210.478C169.126 210.962 169.351 211.497 169.471 212.058C169.763 213.32 169.763 214.628 169.471 215.89C169.35 216.458 169.125 217 168.808 217.492C168.512 217.946 168.106 218.323 167.626 218.592C167.084 218.877 166.473 219.018 165.856 218.998C165.241 219.019 164.63 218.881 164.087 218.599C163.602 218.328 163.192 217.948 162.89 217.492C162.566 217.002 162.339 216.459 162.218 215.89C161.927 214.628 161.927 213.32 162.218 212.058C162.338 211.496 162.566 210.96 162.89 210.478C163.194 210.031 163.604 209.662 164.087 209.401Z" fill="#C11111"/>
<path d="M170.654 211.542L173.88 209.253H176V218.747H173.689V211.77L171.859 213.136L170.654 211.542Z" fill="#C11111"/>
<path d="M167.045 211.309C166.782 211.101 166.435 211 166.014 211C165.821 210.997 165.63 211.022 165.453 211.076C165.277 211.129 165.12 211.209 164.995 211.309C164.708 211.527 164.493 211.784 164.364 212.064C164.212 212.378 164.114 212.704 164.069 213.034C163.977 213.674 163.977 214.319 164.069 214.959C164.113 215.294 164.211 215.624 164.364 215.943C164.492 216.221 164.703 216.478 164.984 216.698C165.113 216.797 165.272 216.875 165.45 216.927C165.628 216.979 165.821 217.004 166.014 216.999C166.208 217.005 166.401 216.98 166.579 216.928C166.758 216.876 166.917 216.797 167.045 216.698C167.315 216.475 167.518 216.219 167.644 215.943C167.79 215.623 167.885 215.293 167.928 214.959C168.024 214.319 168.024 213.674 167.928 213.034C167.884 212.704 167.789 212.379 167.644 212.064C167.52 211.787 167.316 211.531 167.045 211.309Z" fill="white"/>
<path d="M136.023 175.607C136.814 175.19 137.7 174.984 138.594 175.009V175.002C139.487 174.979 140.371 175.191 141.157 175.615C141.852 176.008 142.443 176.56 142.884 177.225C143.344 177.953 143.669 178.758 143.843 179.602C144.042 180.506 144.15 181.465 144.15 182.461C144.151 183.428 144.048 184.392 143.843 185.336C143.651 186.249 143.321 187.046 142.884 187.736C142.45 188.417 141.858 188.983 141.157 189.384C140.372 189.813 139.488 190.025 138.594 189.998C137.589 189.998 136.729 189.791 136.023 189.384C135.317 188.985 134.719 188.419 134.281 187.736C133.813 187.002 133.482 186.189 133.307 185.336C133.1 184.424 133 183.466 133 182.461C133 181.457 133.1 180.506 133.307 179.602C133.482 178.756 133.812 177.95 134.281 177.225C134.726 176.555 135.323 176.001 136.023 175.607Z" fill="#C11111"/>
<path d="M159.696 175.607C160.489 175.188 161.378 174.982 162.275 175.009V175.002C163.168 174.979 164.051 175.191 164.837 175.615C165.53 176.008 166.119 176.56 166.556 177.225C167.018 177.953 167.346 178.758 167.523 179.602C167.936 181.491 167.936 183.447 167.523 185.336C167.324 186.249 167.001 187.046 166.556 187.736C166.125 188.416 165.535 188.982 164.837 189.384C164.053 189.813 163.168 190.025 162.275 189.998C161.269 189.998 160.41 189.791 159.696 189.384C158.99 188.978 158.407 188.426 157.962 187.736C157.493 187.002 157.163 186.189 156.987 185.336C156.78 184.424 156.681 183.466 156.681 182.461C156.676 181.5 156.779 180.541 156.987 179.602C157.162 178.756 157.492 177.95 157.962 177.225C158.404 176.556 158.998 176.002 159.696 175.607Z" fill="#C11111"/>
<path d="M145.7 178.827L150.381 175.393L153.458 175.385V189.614H150.097V179.172L147.442 181.212L145.7 178.827Z" fill="#C11111"/>
<path d="M169.242 178.827L173.923 175.393L177 175.385V189.614H173.639V179.172L170.984 181.212L169.242 178.827Z" fill="#C11111"/>
<path d="M139.792 178.463C139.474 178.15 139.046 178 138.518 178C138.275 177.995 138.035 178.034 137.813 178.114C137.591 178.194 137.393 178.314 137.234 178.463C136.88 178.79 136.613 179.175 136.451 179.591C136.263 180.066 136.141 180.557 136.087 181.055C135.971 182.013 135.971 182.979 136.087 183.937C136.143 184.438 136.268 184.931 136.46 185.408C136.619 185.829 136.882 186.218 137.234 186.551C137.394 186.699 137.593 186.815 137.815 186.893C138.037 186.97 138.277 187.006 138.518 186.999C138.758 187.007 138.998 186.969 139.218 186.891C139.439 186.812 139.635 186.693 139.792 186.544C140.137 186.212 140.395 185.826 140.548 185.408C140.732 184.93 140.854 184.437 140.912 183.937C141.029 182.979 141.029 182.013 140.912 181.055C140.853 180.558 140.731 180.067 140.548 179.591C140.393 179.176 140.136 178.793 139.792 178.463Z" fill="white"/>
<path d="M163.801 178.463C163.474 178.15 163.056 178 162.528 178C162.286 177.996 162.046 178.035 161.824 178.115C161.603 178.195 161.405 178.314 161.246 178.463C160.892 178.79 160.626 179.174 160.464 179.591C160.27 180.065 160.144 180.556 160.091 181.055C160.036 181.577 160 182.055 160 182.481C160.004 182.968 160.037 183.454 160.1 183.937C160.15 184.438 160.272 184.932 160.464 185.408C160.624 185.83 160.89 186.22 161.246 186.551C161.406 186.699 161.604 186.815 161.826 186.893C162.048 186.97 162.287 187.006 162.528 186.999C162.768 187.007 163.008 186.969 163.228 186.891C163.449 186.812 163.644 186.693 163.801 186.544C164.143 186.212 164.397 185.825 164.547 185.408C164.733 184.93 164.855 184.437 164.911 183.937C165.03 182.979 165.03 182.013 164.911 181.055C164.853 180.558 164.731 180.067 164.547 179.591C164.396 179.177 164.142 178.793 163.801 178.463Z" fill="white"/>
<path d="M153.499 117.846C154.58 117.256 155.793 116.966 157.018 117.003C158.237 116.966 159.445 117.256 160.521 117.846C161.471 118.399 162.278 119.177 162.874 120.114C163.507 121.13 163.954 122.256 164.192 123.436C164.466 124.699 164.603 126.04 164.603 127.443C164.603 128.854 164.466 130.196 164.192 131.474C163.918 132.753 163.484 133.868 162.874 134.835C162.283 135.787 161.476 136.579 160.521 137.142C159.561 137.712 158.389 138 157.018 138C155.639 138 154.466 137.712 153.499 137.142C152.533 136.58 151.714 135.785 151.115 134.827C150.506 133.868 150.057 132.753 149.783 131.474C149.508 130.196 149.371 128.854 149.371 127.443C149.366 126.096 149.504 124.752 149.783 123.436C150.024 122.252 150.476 121.124 151.115 120.107C151.724 119.171 152.541 118.396 153.499 117.846Z" fill="#C11111"/>
<path d="M202.896 117.846C203.977 117.256 205.19 116.966 206.415 117.003C207.637 116.964 208.847 117.255 209.925 117.846C210.872 118.4 211.677 119.178 212.271 120.114C212.904 121.13 213.35 122.256 213.589 123.436C213.863 124.699 214 126.04 214 127.443C214 128.854 213.863 130.196 213.589 131.474C213.315 132.753 212.873 133.868 212.279 134.835C211.686 135.788 210.875 136.58 209.918 137.142C208.958 137.712 207.785 138 206.415 138C205.036 138 203.863 137.712 202.896 137.142C201.93 136.58 201.111 135.785 200.512 134.827C199.903 133.868 199.454 132.753 199.179 131.474C198.905 130.196 198.776 128.854 198.776 127.443C198.768 126.096 198.904 124.753 199.179 123.436C199.421 122.252 199.873 121.124 200.512 120.107C201.121 119.171 201.938 118.396 202.896 117.846Z" fill="#C11111"/>
<path d="M135 122.352L141.397 117.534H145.601V137.47H141.009V122.835L137.384 125.705L135 122.352Z" fill="#C11111"/>
<path d="M184.389 122.352L190.794 117.534H195.006V137.47H190.413V122.835L186.781 125.705L184.389 122.352Z" fill="#C11111"/>
<path d="M208.835 121.658C208.252 121.22 207.49 121.001 206.538 121.001C206.102 120.992 205.668 121.046 205.267 121.16C204.866 121.273 204.508 121.443 204.219 121.658C203.587 122.134 203.112 122.691 202.827 123.294C202.493 123.951 202.279 124.655 202.16 125.407C201.947 126.793 201.947 128.191 202.16 129.578C202.263 130.296 202.486 131.005 202.827 131.69C203.113 132.293 203.587 132.85 204.219 133.326C204.505 133.544 204.862 133.718 205.263 133.834C205.665 133.95 206.1 134.007 206.538 133.999C206.973 134.009 207.404 133.954 207.802 133.839C208.199 133.724 208.552 133.551 208.835 133.334C209.454 132.853 209.916 132.294 210.191 131.69C210.512 131.041 210.714 130.337 210.833 129.578C211.056 128.191 211.056 126.793 210.833 125.407C210.714 124.655 210.512 123.951 210.191 123.302C209.87 122.652 209.429 122.104 208.835 121.658Z" fill="white"/>
<path d="M159.078 121.658C158.55 121.22 157.884 121.001 157.039 121.001C156.652 120.992 156.267 121.046 155.911 121.16C155.555 121.273 155.237 121.443 154.98 121.658C154.416 122.134 153.991 122.691 153.734 123.294C153.448 123.951 153.248 124.655 153.142 125.407C152.953 126.793 152.953 128.191 153.142 129.578C153.233 130.296 153.431 131.005 153.734 131.69C153.992 132.294 154.416 132.851 154.98 133.326C155.234 133.544 155.551 133.718 155.907 133.835C156.263 133.951 156.65 134.007 157.039 133.999C157.425 134.009 157.808 133.954 158.161 133.839C158.514 133.724 158.827 133.551 159.078 133.334C159.628 132.853 160.038 132.294 160.282 131.69C160.556 131.041 160.746 130.337 160.852 129.578C161.049 128.191 161.049 126.793 160.852 125.407C160.746 124.655 160.556 123.951 160.282 123.302C159.997 122.652 159.606 122.104 159.078 121.658Z" fill="white"/>
<path d="M69.2176 76.299C73.421 53.4037 93.4726 36 117.53 36C141.815 36 162.004 53.7313 165.964 76.954C168.356 76.4293 170.797 76.1612 173.246 76.1543C181.153 76.1718 188.813 78.9139 194.941 83.9203C201.07 88.9267 205.293 95.8929 206.903 103.65C207.156 104.887 206.908 106.174 206.214 107.229C205.52 108.283 204.436 109.017 203.202 109.271C201.967 109.524 200.682 109.276 199.63 108.58C198.578 107.885 197.845 106.799 197.592 105.562C196.427 99.9518 193.371 94.9143 188.938 91.2946C184.505 87.675 178.964 85.6934 173.246 85.6826C168.028 85.6668 162.94 87.3095 158.713 90.3743C158.209 90.7666 157.631 91.0532 157.014 91.217C156.398 91.3808 155.754 91.4183 155.123 91.3275C154.491 91.2367 153.884 91.0193 153.338 90.6883C152.792 90.3573 152.319 89.9195 151.945 89.4011C151.572 88.8826 151.306 88.2941 151.165 87.6706C151.024 87.0472 151.009 86.4015 151.122 85.7723C151.235 85.143 151.473 84.543 151.823 84.0081C152.172 83.4732 152.626 83.0143 153.156 82.6588C154.342 81.8057 155.581 81.0298 156.865 80.3358C155.661 70.7317 151.002 61.8976 143.762 55.4896C136.522 49.0816 127.198 45.5399 117.538 45.5283C108.493 45.5382 99.7238 48.6421 92.6799 54.3263C85.636 60.0106 80.7402 67.9344 78.8025 76.7865C83.3721 77.6479 87.7176 79.4363 91.5723 82.0419C92.5763 82.765 93.2594 83.8519 93.4764 85.0716C93.6935 86.2913 93.4274 87.5478 92.7347 88.5741C92.042 89.6004 90.9773 90.3156 89.7667 90.5679C88.5561 90.8201 87.2951 90.5895 86.2516 89.925C82.5106 87.405 78.1567 85.9509 73.655 85.7179C69.1533 85.485 64.6731 86.482 60.693 88.6024C56.7129 90.7228 53.3825 93.887 51.0577 97.7567C48.7329 101.627 47.501 106.057 47.4937 110.573C47.4998 117.177 50.1204 123.508 54.7804 128.178C59.4404 132.847 65.759 135.473 72.3492 135.479H123.748C125.008 135.479 126.216 135.981 127.107 136.874C127.998 137.766 128.498 138.977 128.498 140.24C128.498 141.502 127.998 142.713 127.107 143.606C126.216 144.498 125.008 145 123.748 145H72.3568C63.2479 144.99 54.515 141.36 48.074 134.906C41.633 128.451 38.0101 119.701 38 110.573C38.0107 101.991 41.2164 93.722 46.99 87.3831C52.7635 81.0442 60.6896 77.0918 69.2176 76.299Z" fill="#C11111"/>
</svg>
