<svg viewBox="0 0 256 256" fill="none" xmlns="http://www.w3.org/2000/svg">
<path d="M203.058 18C215.98 18 226.387 28.4699 227 40.8044V239L202.41 218.067L188.916 205.767L174.161 192.887L180.301 213.178H51.3287C38.441 213.178 28 203.391 28 190.373V40.8459C28 28.5113 38.4479 18.0414 51.37 18.0414H202.989L203.058 18ZM146.842 70.3356H146.552L144.685 72.1726C163.747 77.7114 172.968 86.3442 172.968 86.3442C160.694 80.1908 149.598 77.0968 138.544 75.8398C130.577 74.6174 122.569 75.2666 115.822 75.8398H113.954C109.647 75.8398 100.46 77.7114 88.1445 82.6356C83.8716 84.5072 81.3975 85.7296 81.3975 85.7296C81.3975 85.7296 90.5842 76.4821 110.901 71.558L109.647 70.3356C109.647 70.3356 94.2851 69.7209 77.7035 82.0278C77.7035 82.0278 61.1219 110.986 61.1219 146.663C61.1219 146.663 70.3086 162.672 95.5118 163.28C95.5118 163.28 99.2058 158.39 102.907 154.074C88.7648 149.757 83.2376 141.125 83.2376 141.125C83.2376 141.125 84.4919 141.739 86.3251 142.962H86.8626C87.1521 142.962 87.2968 143.107 87.4347 143.252V143.321C87.5794 143.466 87.7241 143.569 87.9722 143.569C91.0253 144.826 94.037 146.049 96.518 147.271C100.825 149.108 106.318 150.973 113.065 152.202C121.611 153.459 131.404 154.039 142.569 152.202C148.062 150.945 153.589 149.757 159.116 147.271C162.672 145.434 167.083 143.604 171.928 140.475C171.928 140.475 166.435 149.108 151.68 153.425C154.698 157.707 158.964 162.631 158.964 162.631C184.195 162.057 193.995 146.049 194.533 146.732C194.533 111.089 177.841 82.0969 177.841 82.0969C162.838 70.9088 148.765 70.4806 146.29 70.4806L146.794 70.301L146.842 70.3356ZM148.386 110.986C154.85 110.986 160.053 116.49 160.053 123.251C160.053 130.088 154.816 135.586 148.386 135.586C141.921 135.586 136.718 130.082 136.718 123.32C136.718 116.483 141.955 110.986 148.386 110.986ZM106.642 110.986C113.065 110.986 118.275 116.49 118.275 123.251C118.275 130.088 113.038 135.586 106.608 135.586C100.143 135.586 94.9053 130.082 94.9053 123.32C94.9053 116.483 100.143 110.986 106.608 110.986H106.642Z" fill="#ffff"/>
</svg>
