<svg viewBox="0 0 256 256" fill="none" xmlns="http://www.w3.org/2000/svg">
<path d="M222.5 47H33.5C29.9196 47 26.4858 48.4223 23.9541 50.9541C21.4223 53.4858 20 56.9196 20 60.5V195.5C20 199.08 21.4223 202.514 23.9541 205.046C26.4858 207.578 29.9196 209 33.5 209H222.5C226.08 209 229.514 207.578 232.046 205.046C234.578 202.514 236 199.08 236 195.5V60.5C236 56.9196 234.578 53.4858 232.046 50.9541C229.514 48.4223 226.08 47 222.5 47V47ZM212.105 195.5H44.705L91.955 146.63L82.235 137.248L33.5 187.67V70.76L117.403 154.257C119.932 156.772 123.353 158.183 126.92 158.183C130.487 158.183 133.908 156.772 136.438 154.257L222.5 68.6675V186.792L172.82 137.113L163.302 146.63L212.105 195.5ZM42.3425 60.5H211.565L126.92 144.672L42.3425 60.5Z" fill="#ffff"/>
</svg>
