<svg width="256" height="256" viewBox="0 0 256 256" fill="none" xmlns="http://www.w3.org/2000/svg">
<path d="M87.9397 196.975C87.9397 197.909 86.8314 198.657 85.4341 198.657C83.8439 198.797 82.7357 198.05 82.7357 196.975C82.7357 196.04 83.844 195.292 85.2413 195.292C86.6869 195.152 87.9397 195.9 87.9397 196.975ZM72.954 194.872C72.6167 195.807 73.5804 196.881 75.026 197.162C76.2788 197.629 77.7244 197.162 78.0135 196.227C78.3026 195.292 77.3871 194.218 75.9415 193.797C74.6887 193.47 73.2913 193.937 72.954 194.872ZM94.252 194.077C92.8546 194.405 91.8909 195.293 92.0355 196.367C92.18 197.302 93.4329 197.91 94.8784 197.582C96.2758 197.255 97.2395 196.367 97.095 195.433C96.9504 194.545 95.6494 193.937 94.252 194.077ZM125.958 15C59.1248 15 8 64.2089 8 129.026C8 180.852 41.6335 225.201 89.6744 240.81C95.8421 241.884 98.0105 238.193 98.0105 235.155C98.0105 232.258 97.8659 216.275 97.8659 206.461C97.8659 206.461 64.1361 213.471 57.0528 192.535C57.0528 192.535 51.5597 178.936 43.6573 175.431C43.6573 175.431 32.6228 168.094 44.4282 168.235C44.4282 168.235 56.4264 169.169 63.0278 180.291C73.5804 198.33 91.2645 193.143 98.155 190.059C99.2633 182.581 102.395 177.394 105.865 174.31C78.929 171.412 51.7524 167.627 51.7524 122.671C51.7524 109.819 55.4145 103.37 63.1242 95.1456C61.8714 92.108 57.7756 79.5838 64.377 63.4145C74.4478 60.3769 97.625 76.0321 97.625 76.0321C107.262 73.4151 117.622 72.0599 127.885 72.0599C138.149 72.0599 148.509 73.4151 158.146 76.0321C158.146 76.0321 181.323 60.3302 191.394 63.4145C197.995 79.6305 193.9 92.108 192.647 95.1456C200.356 103.417 205.079 109.866 205.079 122.671C205.079 167.767 176.697 171.366 149.762 174.31C154.195 178.002 157.953 185.011 157.953 195.993C157.953 211.742 157.809 231.229 157.809 235.062C157.809 238.099 160.025 241.791 166.145 240.716C214.33 225.201 247 180.852 247 129.026C247 64.2089 192.791 15 125.958 15ZM54.8363 176.179C54.2099 176.646 54.3544 177.721 55.1736 178.609C55.9446 179.357 57.0528 179.684 57.6792 179.076C58.3056 178.609 58.1611 177.534 57.3419 176.646C56.571 175.899 55.4627 175.572 54.8363 176.179ZM49.6323 172.394C49.295 173.001 49.7768 173.749 50.7405 174.216C51.5115 174.684 52.4752 174.543 52.8125 173.889C53.1498 173.282 52.6679 172.534 51.7042 172.067C50.7405 171.786 49.9696 171.926 49.6323 172.394ZM65.2444 189.03C64.4734 189.638 64.7625 191.04 65.8708 191.928C66.979 193.003 68.3764 193.143 69.0028 192.395C69.6292 191.788 69.3401 190.386 68.3764 189.498C67.3163 188.423 65.8708 188.283 65.2444 189.03ZM59.7512 182.161C58.9802 182.628 58.9802 183.843 59.7512 184.918C60.5222 185.993 61.8232 186.46 62.4496 185.993C63.2206 185.385 63.2206 184.17 62.4496 183.095C61.775 182.021 60.5222 181.553 59.7512 182.161Z" fill="#ffff"/>
</svg>
