<svg viewBox="0 0 216 216" fill="none" xmlns="http://www.w3.org/2000/svg">
<rect width="216" height="216" fill="#FBC02D"/>
<path d="M126.724 132.975C128.818 137.22 132.067 140.788 136.098 143.269C140.129 145.75 144.778 147.044 149.512 147.001C159.083 147.001 165.199 142.216 165.199 135.607C165.199 127.69 158.914 124.882 148.384 120.271L142.606 117.794C125.941 110.693 114.864 101.797 114.864 82.9911C114.864 65.6639 128.067 52.4811 148.695 52.4811C155.39 51.9954 162.08 53.4939 167.928 56.7894C173.775 60.085 178.522 65.0313 181.574 71.0099L163.585 82.5591C162.408 79.5966 160.356 77.0625 157.704 75.2938C155.051 73.525 151.923 72.6053 148.735 72.6569C147.346 72.5171 145.943 72.6684 144.615 73.1011C143.287 73.5338 142.064 74.2385 141.024 75.1701C139.984 76.1018 139.149 77.24 138.573 78.5123C137.997 79.7845 137.693 81.1627 137.679 82.5591C137.679 89.4914 141.972 92.2926 151.854 96.5856L157.632 99.0561C177.261 107.473 188.338 116.053 188.338 135.344C188.338 156.141 172.003 167.535 150.058 167.535C141.511 168.079 132.988 166.137 125.519 161.945C118.05 157.753 111.954 151.49 107.965 143.91L126.724 132.975ZM45.1297 135C48.7612 141.439 52.062 146.88 59.9797 146.88C67.5667 146.88 72.3592 143.91 72.3592 132.367V53.8311H95.4577V132.691C95.4577 156.607 81.4312 167.494 60.9652 167.494C53.7359 167.886 46.5575 166.079 40.3743 162.313C34.1912 158.547 29.293 152.997 26.3242 146.394L45.1297 135Z" fill="#EEEEEE"/>
</svg>
