<svg viewBox="0 0 181 82" fill="none" xmlns="http://www.w3.org/2000/svg">
<path d="M128.794 49.3501C128.881 54.3788 128.989 60.7533 131.664 67.1441C132.825 69.9183 134.711 72.5 136.931 74.3023C138.84 75.8528 140.469 76.573 142.092 77.2573C146.04 78.9222 148.981 79.5072 153.501 79.4283C160.462 79.3068 165.994 77.5981 170.097 74.3023C174.198 70.9761 176.202 66.6219 176.108 61.2397C176.05 57.8645 175.245 54.9433 173.695 52.4762C172.175 50.0085 169.846 47.8744 166.71 46.0737C163.603 44.2421 159.266 42.5995 153.754 41.1444C146.273 39.1154 140.803 36.5646 137.343 33.4921C133.912 30.3886 132.157 26.5259 132.076 21.9039C131.994 17.175 133.612 13.1624 136.93 9.86616C137.282 9.51679 137.653 9.17546 138.043 8.84218C142.142 5.33353 147.506 3.52134 154.136 3.40562C158.656 3.32671 162.694 4.13832 166.251 5.84041C169.838 7.54199 172.623 9.92673 174.605 12.9946C176.618 16.062 177.657 19.4354 177.721 23.1147" stroke="#5762D5" stroke-width="4"/>
<path d="M66.2145 50.6014V80C66.2145 81.1046 67.1099 82 68.2145 82H74.3284C75.433 82 76.3284 81.1046 76.3284 80V44.5C76.3284 41 78 38.5 87 39C96 39.5 105.5 42.6385 111 45.5C116.5 48.3615 123 53 125 54.5C127 56 129.983 56.4504 131.492 55.2252C133 54 132.821 52 132.5 50C132.179 48 129.889 42.8009 129 41.0662C122.174 27.7534 113.496 18.4383 101 11C88.5044 3.5617 82.2786 2.16462 76.3284 1.37128C70.8996 0.64745 70.4551 0.796948 67.9482 1.23708C67.4449 1.32545 66.9904 1.59814 66.6813 2.00506L38.4121 39.2192C38.0074 39.7518 37.204 39.7447 36.8089 39.2049L9.71232 2.19003C9.33566 1.67549 8.7362 1.37141 8.09852 1.37141H2C0.895431 1.37141 0 2.26684 0 3.37141V80C0 81.1046 0.895428 82 2 82H8.11391C9.21848 82 10.1139 81.1046 10.1139 80V50.6014L9.11305 16.8769L33.2016 49.7827C33.5782 50.2973 34.1777 50.6014 34.8154 50.6014H40.5293C41.1673 50.6014 41.7669 50.297 42.1435 49.7822L66.2145 16.8769V50.6014Z" fill="#212529"/>
<path d="M91 16C91 17.1046 90.1046 18 89 18C87.8954 18 87 17.1046 87 16C87 14.8954 87.8954 14 89 14C90.1046 14 91 14.8954 91 16Z" fill="white"/>
</svg>
