<svg viewBox="0 0 216 216" fill="none" xmlns="http://www.w3.org/2000/svg">
<rect width="216" height="216" fill="#8993BE"/>
<path d="M51.3 93.0893C53.3814 92.8276 55.4939 92.981 57.5157 93.5406C59.5374 94.1002 61.4282 95.0549 63.0788 96.3496C64.1438 97.9901 64.8228 99.8507 65.0648 101.792C65.3069 103.732 65.1055 105.703 64.476 107.555C63.9238 112.113 61.7191 116.311 58.2795 119.354C54.1316 122.026 49.2283 123.279 44.307 122.924H34.857L40.662 93.1501L51.3 93.0893ZM13.5 153.07H29.025L32.7037 134.17H45.981C50.8724 134.294 55.7538 133.664 60.453 132.3C64.3124 131.026 67.8401 128.909 70.7805 126.104C75.866 121.531 79.2934 115.402 80.5275 108.675C81.5016 105.327 81.6731 101.796 81.0281 98.3697C80.3831 94.943 78.9397 91.7164 76.815 88.9516C74.2534 86.4131 71.1686 84.4643 67.776 83.2413C64.3833 82.0183 60.7646 81.5506 57.1725 81.8708H27.3848L13.5 153.07Z" fill="#EEEEEE"/>
<path d="M91.9149 62.9302H107.325L103.592 81.8302H117.302C123.6 81.1707 129.928 82.7712 135.155 86.3459C136.885 88.3121 138.067 90.6985 138.584 93.2658C139.101 95.8331 138.933 98.491 138.098 100.973L131.659 134.109H116.066L122.195 102.607C122.622 101.405 122.774 100.123 122.641 98.8543C122.508 97.5859 122.093 96.3634 121.426 95.2762C119.192 93.673 116.43 92.9826 113.704 93.3457H101.399L93.4674 134.143H78.0234L91.9149 62.9302Z" fill="#EEEEEE"/>
<path d="M172.388 93.0893C174.469 92.8276 176.582 92.9809 178.604 93.5405C180.625 94.1001 182.516 95.0548 184.167 96.3495C185.232 97.99 185.911 99.8506 186.153 101.791C186.395 103.732 186.193 105.703 185.564 107.555C185.012 112.113 182.807 116.311 179.367 119.353C175.212 122.031 170.298 123.284 165.368 122.924H155.925L161.716 93.1163L172.388 93.0893ZM134.588 153.07H150.113L153.792 134.17H167.076C171.976 134.297 176.867 133.666 181.575 132.3C185.434 131.026 188.962 128.909 191.902 126.103C196.975 121.526 200.39 115.398 201.615 108.675C202.589 105.327 202.761 101.796 202.116 98.3696C201.471 94.9429 200.028 91.7163 197.903 88.9515C195.34 86.4175 192.256 84.473 188.864 83.2536C185.473 82.0342 181.857 81.5692 178.267 81.891H148.432L134.588 153.07Z" fill="#EEEEEE"/>
</svg>
